<?xml version="1.0" standalone="no"?>
<!DOCTYPE svg PUBLIC "-//W3C//DTD SVG 1.1//EN" "http://www.w3.org/Graphics/SVG/1.1/DTD/svg11.dtd">
<!--Generator: Xara Designer (www.xara.com), SVG filter version: 6.1.0.18-->
<svg stroke-width="0.501" stroke-linejoin="bevel" fill-rule="evenodd" xmlns:xlink="http://www.w3.org/1999/xlink" xmlns="http://www.w3.org/2000/svg" version="1.1" overflow="visible" width="187.5pt" height="237pt" viewBox="0 0 187.5 237">
 <defs>
	</defs>
 <g id="Document" fill="none" stroke="black" font-family="Times New Roman" font-size="16" transform="scale(1 -1)">
  <g id="Spread" transform="translate(0 -237)">
   <g id="MouseOff">
    <g id="Group" stroke-linejoin="miter" stroke="none">
     <path d="M 93.751,-0.012 C 107.52,-0.012 187.502,89.841 187.502,142.205 C 187.502,194.568 145.529,237.017 93.751,237.017 C 41.975,237.017 0.002,194.568 0.002,142.205 C 0.002,89.841 79.984,-0.012 93.751,-0.012 Z M 93.751,94.799 C 119.64,94.799 140.627,116.024 140.627,142.205 C 140.627,168.386 119.64,189.61 93.751,189.61 C 67.863,189.61 46.876,168.386 46.876,142.205 C 46.876,116.024 67.863,94.799 93.751,94.799 Z M 93.751,110.601 C 111.011,110.601 125.002,124.75 125.002,142.205 C 125.002,159.659 111.011,173.809 93.751,173.809 C 76.493,173.809 62.501,159.659 62.501,142.205 C 62.501,124.75 76.493,110.601 93.751,110.601 Z" fill="#d74952" stroke-width="3.538" marker-start="none" marker-end="none" stroke-miterlimit="79.8403193612775"/>
     <path d="M 39.947,196.531 C 69.646,226.229 117.856,226.229 147.555,196.531 C 177.253,166.832 177.253,118.622 147.555,88.923 C 117.856,59.225 69.646,59.225 39.947,88.923 C 10.249,118.622 10.249,166.832 39.947,196.531 Z" fill="#ffffff" stroke-width="4.801" marker-start="none" marker-end="none"/>
     <g id="Group_1" stroke-width="3" fill-rule="nonzero">
      <path d="M 76.572,208.397 L 75.167,208.036 L 71.977,207.046 L 68.859,205.903 L 65.814,204.615 L 62.846,203.185 L 59.962,201.617 L 57.163,199.916 L 54.455,198.088 L 51.841,196.133 L 49.326,194.058 L 46.915,191.867 L 44.613,189.564 L 42.421,187.153 L 40.346,184.64 L 38.391,182.026 L 36.563,179.316 L 34.862,176.518 L 33.294,173.634 L 31.864,170.665 L 30.576,167.62 L 30.46,167.3 L 76.572,167.3 Z" fill="#00237c" marker-start="none" marker-end="none"/>
      <path d="M 134.07,134.158 L 46.82,191.772 L 44.613,189.564 L 42.421,187.153 L 40.346,184.64 L 38.391,182.026 L 36.563,179.316 L 34.862,176.518 L 33.294,173.634 L 32.146,171.249 L 105.892,122.556 Z" fill="#ffffff" marker-start="none" marker-end="none"/>
      <path d="M 112.017,131.837 L 37.657,180.938 L 36.563,179.316 L 34.862,176.518 L 33.37,173.774 L 107.427,124.874 Z" fill="#cf142b" marker-start="none" marker-end="none"/>
      <path d="M 156.926,167.62 L 155.639,170.665 L 154.209,173.634 L 152.641,176.518 L 150.94,179.316 L 149.112,182.026 L 147.157,184.64 L 145.082,187.153 L 142.89,189.564 L 140.588,191.867 L 138.177,194.058 L 135.661,196.133 L 133.048,198.088 L 130.34,199.916 L 127.541,201.617 L 124.657,203.185 L 121.689,204.615 L 118.644,205.903 L 115.525,207.046 L 112.336,208.036 L 111.921,208.143 L 111.921,167.3 L 157.043,167.3 Z" fill="#00237c" marker-start="none" marker-end="none"/>
      <path d="M 155.598,170.749 L 154.209,173.634 L 152.641,176.518 L 150.94,179.316 L 149.112,182.026 L 147.157,184.64 L 145.082,187.153 L 142.89,189.564 L 141.081,191.373 L 54.432,134.158 L 82.609,122.556 Z" fill="#ffffff" marker-start="none" marker-end="none"/>
      <path d="M 154.381,173.277 L 154.209,173.634 L 152.641,176.518 L 150.94,179.316 L 150.152,180.484 L 76.477,131.837 L 81.079,124.874 Z" fill="#cf142b" marker-start="none" marker-end="none"/>
      <path d="M 112.336,77.42 L 115.525,78.41 L 118.644,79.553 L 121.689,80.84 L 124.657,82.271 L 127.541,83.838 L 130.34,85.539 L 133.048,87.367 L 135.661,89.322 L 138.177,91.397 L 140.588,93.589 L 142.89,95.891 L 145.082,98.302 L 147.157,100.818 L 149.112,103.431 L 150.94,106.139 L 152.641,108.938 L 154.209,111.822 L 155.639,114.79 L 156.926,117.835 L 157.852,120.36 L 111.921,120.36 L 111.921,77.313 Z" fill="#00237c" marker-start="none" marker-end="none"/>
      <path d="M 142.89,95.891 L 145.082,98.302 L 147.157,100.818 L 149.112,103.431 L 150.94,106.139 L 152.641,108.938 L 154.209,111.822 L 155.639,114.79 L 156.331,116.428 L 82.609,165.104 L 54.432,153.502 L 142.409,95.41 Z" fill="#ffffff" marker-start="none" marker-end="none"/>
      <path d="M 152.641,108.938 L 154.209,111.822 L 155.186,113.851 L 81.079,162.786 L 76.477,155.822 L 151.165,106.508 Z" fill="#cf142b" marker-start="none" marker-end="none"/>
      <path d="M 76.572,120.36 L 29.651,120.36 L 30.576,117.835 L 31.864,114.79 L 33.294,111.822 L 34.862,108.938 L 36.563,106.139 L 38.391,103.431 L 40.346,100.818 L 42.421,98.302 L 44.613,95.891 L 46.915,93.589 L 49.326,91.397 L 51.841,89.322 L 54.455,87.367 L 57.163,85.539 L 59.962,83.838 L 62.846,82.271 L 65.814,80.84 L 68.859,79.553 L 71.977,78.41 L 75.167,77.42 L 76.572,77.058 Z" fill="#00237c" marker-start="none" marker-end="none"/>
      <path d="M 134.07,153.502 L 105.892,165.104 L 31.389,115.911 L 31.864,114.79 L 33.294,111.822 L 34.862,108.938 L 36.563,106.139 L 38.391,103.431 L 40.346,100.818 L 42.421,98.302 L 44.613,95.891 L 45.492,95.012 Z" fill="#ffffff" marker-start="none" marker-end="none"/>
      <path d="M 112.017,155.822 L 107.427,162.786 L 32.558,113.35 L 33.294,111.822 L 34.862,108.938 L 36.563,106.139 L 36.627,106.042 Z" fill="#cf142b" marker-start="none" marker-end="none"/>
      <path d="M 95.505,74.865 L 98.975,75.042 L 102.399,75.388 L 105.77,75.905 L 109.082,76.582 L 112.103,77.359 L 112.103,121.403 L 158.208,121.403 L 159.059,124.143 L 159.897,127.397 L 160.574,130.709 L 161.091,134.08 L 161.437,137.504 L 161.614,140.974 L 161.629,142.728 L 161.614,144.481 L 161.437,147.952 L 161.091,151.375 L 160.574,154.746 L 159.897,158.061 L 159.059,161.312 L 158.069,164.502 L 157.043,167.3 L 112.103,167.3 L 112.103,208.097 L 109.082,208.873 L 105.77,209.552 L 102.399,210.067 L 98.975,210.414 L 95.505,210.59 L 93.751,210.605 L 91.998,210.59 L 88.527,210.414 L 85.104,210.067 L 81.733,209.552 L 78.42,208.873 L 76.052,208.263 L 76.052,167.3 L 30.46,167.3 L 29.433,164.502 L 28.443,161.312 L 27.606,158.061 L 26.928,154.746 L 26.412,151.375 L 26.066,147.952 L 25.889,144.481 L 25.874,142.728 L 25.889,140.974 L 26.066,137.504 L 26.412,134.08 L 26.928,130.709 L 27.606,127.397 L 28.443,124.143 L 29.294,121.403 L 76.052,121.403 L 76.052,77.192 L 78.42,76.582 L 81.733,75.905 L 85.104,75.388 L 88.527,75.042 L 91.998,74.865 L 93.751,74.85 Z" fill="#ffffff" marker-start="none" marker-end="none"/>
      <path d="M 95.505,74.865 L 98.975,75.042 L 102.399,75.388 L 104.453,75.703 L 104.453,130.791 L 160.587,130.791 L 161.091,134.08 L 161.437,137.504 L 161.614,140.974 L 161.629,142.728 L 161.614,144.481 L 161.437,147.952 L 161.091,151.375 L 160.574,154.746 L 159.927,157.913 L 104.453,157.913 L 104.453,209.753 L 102.399,210.067 L 98.975,210.414 L 95.505,210.59 L 93.751,210.605 L 91.998,210.59 L 88.527,210.414 L 85.104,210.067 L 83.702,209.853 L 83.702,157.913 L 27.576,157.913 L 26.928,154.746 L 26.412,151.375 L 26.066,147.952 L 25.889,144.481 L 25.874,142.728 L 25.889,140.974 L 26.066,137.504 L 26.412,134.08 L 26.916,130.791 L 83.702,130.791 L 83.702,75.602 L 85.104,75.388 L 88.527,75.042 L 91.998,74.865 L 93.751,74.85 Z" fill="#cf142b" marker-start="none" marker-end="none"/>
     </g>
    </g>
   </g>
  </g>
 </g>
</svg>
